<svg xmlns="http://www.w3.org/2000/svg" xmlns:xlink="http://www.w3.org/1999/xlink" viewBox="0 0 39.4 39.4"><defs><style>.cls-1{fill:#e1e2e4}.cls-2{fill:#717580}</style><symbol id="icon_-_portafolio_fijo_2" data-name="icon - portafolio fijo 2" viewBox="0 0 39.4 39.4"><circle class="cls-1" cx="19.7" cy="19.7" r="19.7"/><path class="cls-2" d="M17.67 12.69h-2.86a.41.41 0 1 0 0 .82h2.86a.41.41 0 1 0 0-.82zm0 3.67h-2.86a.41.41 0 1 0 0 .82h2.86a.41.41 0 0 0 0-.82zm0 3.64h-2.86a.41.41 0 0 0 0 .82h2.86a.41.41 0 1 0 0-.82zm0 3.71h-2.86a.41.41 0 1 0 0 .82h2.86a.41.41 0 1 0 0-.82zm4.49-6.12H25a.41.41 0 1 0 0-.82h-2.84a.41.41 0 0 0 0 .82zM25 20.45h-2.84a.41.41 0 0 0 0 .82H25a.41.41 0 0 0 0-.82zm0 3.67h-2.84a.41.41 0 0 0 0 .82H25a.41.41 0 1 0 0-.82z"/><path class="cls-2" d="M30.33 27.8h-2.86v-1.23a.41.41 0 1 0-.82 0v1.23h-6.12V12a.57.57 0 0 1 .57-.57h5a.52.52 0 0 1 .51.51v11.77a.41.41 0 0 0 .82 0V12a1.39 1.39 0 0 0-1.39-1.39h-5.3c-.18 0-.49 0-.66.19V9.75A1.14 1.14 0 0 0 19 8.6h-5.5a1.12 1.12 0 0 0-1.12 1.12V27.8H9.5a.41.41 0 0 0 0 .82h20.83a.41.41 0 1 0 0-.82zm-11 0h-6.15V9.75c0-.24.07-.33.3-.33H19c.24 0 .28.09.28.33z"/></symbol></defs><title>Recurso 1</title><g id="Capa_2" data-name="Capa 2"><g id="Capa_1-2" data-name="Capa 1"><use id="icon_-_portafolio_fijo_2-3" data-name="icon - portafolio fijo 2" width="39.4" height="39.4" xlink:href="#icon_-_portafolio_fijo_2"/></g></g></svg>