<?xml version="1.0" encoding="utf-8"?>
<!-- Generator: Adobe Illustrator 22.0.1, SVG Export Plug-In . SVG Version: 6.00 Build 0)  -->
<svg version="1.1" id="Layer_1" xmlns="http://www.w3.org/2000/svg" xmlns:xlink="http://www.w3.org/1999/xlink" x="0px" y="0px"
	 viewBox="0 0 200 50" style="enable-background:new 0 0 200 50;" xml:space="preserve">
<style type="text/css">
	.st0{fill:#6D6E70;}
	.st1{fill:#00377C;}
</style>
<g>
	<g>
		<path class="st0" d="M76.2,38.8c0,1.8,0.9,2.1,1.5,2.1c0.8,0,1.6-0.3,1.6-2.2v-2.6c0-0.2,0.1-0.2,0.2-0.2c0.2,0,0.4,0,0.5,0
			c0,0.3,0,0.9,0,1.6v1.2c0,2.5-1.3,2.8-2.3,2.8c-1.3,0-2.2-0.6-2.2-2.7v-1.8c0-0.6,0-1,0-1.1c0.1,0,0.5-0.1,0.7-0.1
			s0.2,0.1,0.2,0.5V38.8z"/>
		<path class="st0" d="M83.9,39.1c0-0.7-0.3-1-0.8-1c-0.5,0-0.8,0.3-1,0.5v2.6c0,0.2,0,0.2-0.2,0.2c-0.2,0-0.4,0-0.6,0
			c0-0.3,0-0.8,0-1.6v-1.5c0-0.3,0-0.5-0.2-0.6v0c0.1-0.1,0.3-0.3,0.5-0.3c0.3,0,0.4,0.4,0.4,0.7c0.3-0.4,0.8-0.7,1.3-0.7
			c1,0,1.3,0.8,1.3,1.6v1.2c0,0.5,0,0.9,0,1.1c-0.2,0-0.4,0.1-0.7,0.1c-0.1,0-0.1,0-0.1-0.1L83.9,39.1z"/>
		<path class="st0" d="M89,41c0,0.4-0.2,0.5-0.6,0.5c-0.4,0-0.6-0.3-0.6-0.6c-0.2,0.3-0.7,0.6-1.1,0.6c-0.6,0-1-0.5-1-1
			c0-1,1.2-1.2,1.7-1.3c0.2,0,0.3-0.1,0.4-0.1v-0.3c0-0.4-0.2-0.8-0.8-0.8c-0.3,0-0.7,0.2-0.9,0.3c-0.2,0.1-0.4-0.1-0.4-0.3
			c0.3-0.3,0.9-0.6,1.4-0.6c0.9,0,1.3,0.6,1.3,1.5c0,0.4,0,1.2,0,1.8c0,0.2,0.1,0.3,0.3,0.3C88.9,41,89,40.9,89,41L89,41z M87,40.9
			c0.4,0,0.6-0.2,0.7-0.4c0-0.1,0.1-0.1,0.1-0.3v-0.7c-0.7,0.1-1.4,0.4-1.4,0.8C86.4,40.7,86.7,40.9,87,40.9z"/>
		<path class="st0" d="M94,37.7c0,0.2-0.1,0.4-0.3,0.4C93.6,38,93.3,38,93.1,38c-0.3,0-0.6,0.2-0.6,0.5c0,0.3,0.2,0.4,0.4,0.5
			c0.2,0.1,0.5,0.3,0.8,0.4c0.4,0.2,0.6,0.5,0.6,0.9c0,0.8-0.7,1.2-1.4,1.2c-0.4,0-0.8-0.1-1-0.3c-0.1-0.1-0.2-0.1-0.2-0.2
			c0-0.1,0.1-0.3,0.2-0.4c0.3,0.2,0.6,0.3,1,0.3c0.4,0,0.7-0.2,0.7-0.5c0-0.2-0.1-0.4-0.4-0.5c-0.2-0.1-0.5-0.2-0.7-0.3
			c-0.4-0.2-0.6-0.5-0.6-1c0-0.7,0.6-1.2,1.3-1.2C93.5,37.4,93.8,37.5,94,37.7z"/>
		<path class="st0" d="M98.9,39.4c0,1.2-0.8,2.1-1.9,2.1c-1.3,0-1.9-1-1.9-2c0-1.2,0.8-2.1,2-2.1C98.2,37.4,98.9,38.3,98.9,39.4z
			 M95.8,39.4c0,1.1,0.5,1.6,1.2,1.6c0.5,0,1.1-0.4,1.1-1.5c0-0.8-0.4-1.6-1.2-1.6C96.3,37.9,95.8,38.5,95.8,39.4z"/>
		<path class="st0" d="M100,36.5c0-0.5,0-0.8,0-1c0.2-0.1,0.5-0.1,0.7-0.1c0.1,0,0.1,0,0.1,0.6v4.3c0,0.4,0,0.9,0,1.2
			c-0.2,0-0.6,0.1-0.7,0.1c-0.1,0-0.1,0-0.1-0.1V36.5z"/>
		<path class="st0" d="M102.1,38.6c0-0.5,0-0.8,0-1c0.1-0.1,0.5-0.1,0.7-0.1c0.1,0,0.1,0,0.1,0.5c0,0.6,0,1.2,0,1.8
			c0,0.9,0.5,1.1,0.9,1.1c0.4,0,0.8-0.3,0.9-0.5v-2.6c0-0.2,0-0.3,0.1-0.3c0.2,0,0.4-0.1,0.6-0.1c0,0.2,0,0.8,0,1.6v1.4
			c0,0.4,0.1,0.5,0.4,0.6v0c0,0.2-0.2,0.4-0.4,0.4c-0.4,0-0.6-0.2-0.6-0.6c-0.3,0.3-0.5,0.4-0.7,0.5c-0.2,0.1-0.4,0.1-0.6,0.1
			c-0.9,0-1.3-0.6-1.3-1.5V38.6z"/>
		<path class="st0" d="M109.7,40.8c0,0.2-0.1,0.4-0.2,0.5c-0.2,0.1-0.6,0.2-0.9,0.2c-0.9,0-2-0.4-2-2c0-1.2,0.9-2.1,2.1-2.1
			c0.6,0,1,0.2,1.1,0.3c0,0.2-0.1,0.4-0.3,0.4c-0.2-0.1-0.5-0.2-0.8-0.2c-0.8,0-1.3,0.6-1.3,1.4c0,1.2,0.8,1.5,1.4,1.5
			C109.1,40.9,109.4,40.9,109.7,40.8L109.7,40.8z"/>
		<path class="st0" d="M111.5,36.1c0,0.2-0.2,0.4-0.4,0.4c-0.2,0-0.4-0.1-0.4-0.4c0-0.3,0.3-0.5,0.4-0.5
			C111.3,35.6,111.5,35.8,111.5,36.1z M111.4,41.2c0,0.2,0,0.2-0.2,0.2c-0.1,0-0.3,0-0.6,0c0-0.4,0-0.9,0-1.4v-1.5c0-0.5,0-0.8,0-1
			c0.1-0.1,0.5-0.1,0.7-0.1c0.1,0,0.1,0,0.1,0.5V41.2z"/>
		<path class="st0" d="M116.3,39.4c0,1.2-0.7,2.1-1.9,2.1c-1.3,0-1.9-1-1.9-2c0-1.2,0.8-2.1,2-2.1C115.7,37.4,116.3,38.3,116.3,39.4
			z M113.3,39.4c0,1.1,0.5,1.6,1.2,1.6c0.5,0,1.1-0.4,1.1-1.5c0-0.8-0.4-1.6-1.2-1.6C113.8,37.9,113.3,38.5,113.3,39.4z M115.2,35.6
			c0.1,0,0.1,0.1,0,0.2c-0.4,0.4-0.7,0.9-0.9,1.2c-0.1,0-0.2-0.1-0.2-0.1c0,0,0-0.1,0-0.2c0.1-0.3,0.6-1.2,0.7-1.2
			C114.9,35.4,115.1,35.5,115.2,35.6z"/>
		<path class="st0" d="M120,39.1c0-0.7-0.3-1-0.8-1c-0.4,0-0.8,0.3-1,0.5v2.6c0,0.2,0,0.2-0.2,0.2c-0.2,0-0.4,0-0.6,0
			c0-0.3,0-0.8,0-1.6v-1.5c0-0.3,0-0.5-0.1-0.6v0c0.1-0.1,0.3-0.3,0.5-0.3c0.3,0,0.4,0.4,0.4,0.7c0.3-0.4,0.8-0.7,1.3-0.7
			c1,0,1.3,0.8,1.3,1.6v1.2c0,0.5,0,0.9,0,1.1c-0.2,0-0.4,0.1-0.7,0.1c-0.1,0-0.1,0-0.1-0.1L120,39.1z"/>
		<path class="st0" d="M125,43c0,0.2,0,0.2-0.2,0.2c-0.2,0-0.4,0-0.6,0c0-0.2,0-0.8,0-1.5v-3.4c0-0.3-0.1-0.5-0.1-0.5v0
			c0.1-0.1,0.3-0.3,0.5-0.3s0.3,0.2,0.4,0.6c0.5-0.4,1-0.6,1.4-0.6c0.8,0,1.6,0.6,1.6,1.9c0,1.3-0.9,2.2-2.1,2.2
			c-0.3,0-0.6-0.1-0.8-0.2V43z M125,40.8c0.2,0.1,0.5,0.2,0.7,0.2c0.5,0,1.4-0.4,1.4-1.6c0-0.8-0.5-1.3-1.1-1.3
			c-0.4,0-0.8,0.3-1,0.4V40.8z"/>
		<path class="st0" d="M132,41c0,0.4-0.2,0.5-0.6,0.5c-0.4,0-0.6-0.3-0.6-0.6c-0.2,0.3-0.7,0.6-1.1,0.6c-0.6,0-1-0.5-1-1
			c0-1,1.2-1.2,1.7-1.3c0.2,0,0.3-0.1,0.4-0.1v-0.3c0-0.4-0.2-0.8-0.8-0.8c-0.3,0-0.7,0.2-0.9,0.3c-0.2,0.1-0.4-0.1-0.4-0.3
			c0.3-0.3,0.9-0.6,1.4-0.6c0.9,0,1.3,0.6,1.3,1.5c0,0.4,0,1.2,0,1.8c0,0.2,0.1,0.3,0.3,0.3C131.9,41,131.9,40.9,132,41L132,41z
			 M130,40.9c0.4,0,0.6-0.2,0.7-0.4c0-0.1,0.1-0.1,0.1-0.3v-0.7c-0.7,0.1-1.4,0.4-1.4,0.8C129.4,40.7,129.7,40.9,130,40.9z"/>
		<path class="st0" d="M132.8,37.8c0.1-0.1,0.3-0.3,0.5-0.3c0.3,0,0.4,0.3,0.4,0.9c0.3-0.6,0.7-0.9,1.1-0.9c0.2,0,0.4,0.1,0.5,0.2
			c0,0.1-0.1,0.4-0.2,0.5c-0.1,0.1-0.1,0.1-0.2,0.1c-0.1,0-0.2,0-0.3,0c-0.2,0-0.5,0.2-0.7,0.6c-0.1,0.2-0.1,0.3-0.1,0.5v2
			c0,0.1,0,0.2-0.2,0.2c-0.2,0-0.4,0-0.6,0c0-0.3,0-0.8,0-1.6v-1.5C133,38.1,132.9,37.9,132.8,37.8L132.8,37.8z"/>
		<path class="st0" d="M139,41c0,0.4-0.2,0.5-0.6,0.5c-0.4,0-0.6-0.3-0.6-0.6c-0.2,0.3-0.7,0.6-1.1,0.6c-0.6,0-1-0.5-1-1
			c0-1,1.2-1.2,1.7-1.3c0.2,0,0.3-0.1,0.4-0.1v-0.3c0-0.4-0.2-0.8-0.8-0.8c-0.3,0-0.7,0.2-0.9,0.3c-0.2,0.1-0.4-0.1-0.4-0.3
			c0.3-0.3,0.9-0.6,1.4-0.6c0.9,0,1.3,0.6,1.3,1.5c0,0.4,0,1.2,0,1.8c0,0.2,0.1,0.3,0.3,0.3C138.9,41,139,40.9,139,41L139,41z
			 M137,40.9c0.4,0,0.6-0.2,0.7-0.4c0-0.1,0.1-0.1,0.1-0.3v-0.7c-0.7,0.1-1.4,0.4-1.4,0.8C136.4,40.7,136.7,40.9,137,40.9z"/>
		<path class="st0" d="M144.9,40.8c0,0.2-0.1,0.4-0.2,0.5c-0.2,0.1-0.6,0.2-0.9,0.2c-0.9,0-2-0.4-2-2c0-1.2,0.9-2.1,2.1-2.1
			c0.6,0,1,0.2,1.1,0.3c0,0.2-0.1,0.4-0.3,0.4c-0.2-0.1-0.5-0.2-0.8-0.2c-0.8,0-1.3,0.6-1.3,1.4c0,1.2,0.8,1.5,1.4,1.5
			C144.3,40.9,144.6,40.9,144.9,40.8L144.9,40.8z"/>
		<path class="st0" d="M149,41c0,0.4-0.2,0.5-0.6,0.5c-0.4,0-0.6-0.3-0.6-0.6c-0.2,0.3-0.7,0.6-1.1,0.6c-0.6,0-1-0.5-1-1
			c0-1,1.2-1.2,1.7-1.3c0.2,0,0.3-0.1,0.4-0.1v-0.3c0-0.4-0.2-0.8-0.8-0.8c-0.3,0-0.7,0.2-0.9,0.3c-0.2,0.1-0.4-0.1-0.4-0.3
			c0.3-0.3,0.9-0.6,1.4-0.6c0.9,0,1.3,0.6,1.3,1.5c0,0.4,0,1.2,0,1.8c0,0.2,0.1,0.3,0.3,0.3C148.8,41,148.9,40.9,149,41L149,41z
			 M147,40.9c0.4,0,0.6-0.2,0.7-0.4c0-0.1,0.1-0.1,0.1-0.3v-0.7c-0.7,0.1-1.4,0.4-1.4,0.8C146.4,40.7,146.6,40.9,147,40.9z"/>
		<path class="st0" d="M152.5,36.4c0-0.5,0-0.7,0-0.9c0.2-0.1,0.5-0.1,0.6-0.1c0.1,0,0.1,0,0.1,0.6v4.5c0,0.4,0.1,0.5,0.4,0.6v0
			c0,0.2-0.2,0.4-0.4,0.4c-0.4,0-0.6-0.2-0.6-0.5c-0.4,0.3-0.9,0.5-1.3,0.5c-0.9,0-1.7-0.7-1.7-1.9c0-1.3,0.9-2.1,2.2-2.1
			c0.3,0,0.6,0.1,0.7,0.1V36.4z M152.5,38.1c-0.1-0.1-0.4-0.1-0.7-0.1c-0.7,0-1.4,0.5-1.4,1.6c0,0.9,0.5,1.4,1.2,1.4
			c0.3,0,0.6-0.1,0.8-0.3V38.1z"/>
		<path class="st0" d="M157.7,41c0,0.4-0.2,0.5-0.6,0.5c-0.4,0-0.6-0.3-0.6-0.6c-0.2,0.3-0.7,0.6-1.1,0.6c-0.6,0-1-0.5-1-1
			c0-1,1.2-1.2,1.7-1.3c0.2,0,0.3-0.1,0.4-0.1v-0.3c0-0.4-0.2-0.8-0.8-0.8c-0.3,0-0.7,0.2-0.9,0.3c-0.2,0.1-0.4-0.1-0.4-0.3
			c0.3-0.3,0.9-0.6,1.4-0.6c0.9,0,1.3,0.6,1.3,1.5c0,0.4,0,1.2,0,1.8c0,0.2,0.1,0.3,0.3,0.3C157.6,41,157.6,40.9,157.7,41L157.7,41z
			 M155.7,40.9c0.4,0,0.6-0.2,0.8-0.4c0-0.1,0.1-0.1,0.1-0.3v-0.7c-0.7,0.1-1.4,0.4-1.4,0.8C155.1,40.7,155.3,40.9,155.7,40.9z"/>
		<path class="st0" d="M163.3,39.1c0-0.7-0.3-1-0.8-1c-0.5,0-0.8,0.3-1,0.5v2.6c0,0.2,0,0.2-0.2,0.2c-0.2,0-0.4,0-0.6,0
			c0-0.3,0-0.8,0-1.6v-1.5c0-0.3,0-0.5-0.2-0.6v0c0.1-0.1,0.3-0.3,0.5-0.3c0.3,0,0.4,0.4,0.4,0.7c0.3-0.4,0.8-0.7,1.3-0.7
			c1,0,1.3,0.8,1.3,1.6v1.2c0,0.5,0,0.9,0,1.1c-0.2,0-0.4,0.1-0.7,0.1c-0.1,0-0.1,0-0.1-0.1L163.3,39.1z"/>
		<path class="st0" d="M168.2,40.7c0,0.3-0.2,0.5-0.3,0.6c-0.1,0.1-0.5,0.2-0.9,0.2c-1.2,0-1.9-0.7-1.9-2c0-1.1,0.7-2.1,1.8-2.1
			c1,0,1.4,0.7,1.5,1.5c0,0.1,0,0.2,0,0.3c0,0.1-0.4,0.3-0.8,0.3c-0.2,0-1.1,0-1.7,0c0,0.9,0.6,1.4,1.3,1.4
			C167.6,40.9,168,40.8,168.2,40.7L168.2,40.7z M165.9,39c0.6,0,1.4,0,1.6,0c0.1,0,0.2-0.1,0.2-0.2c0-0.5-0.3-0.9-0.8-0.9
			C166.4,37.9,166,38.3,165.9,39z"/>
		<path class="st0" d="M171.4,37.5c0.2,0.1,0.5,0.1,0.7,0.1c0.2,0,0.5,0,0.6-0.1c0,0,0,0.1,0,0.2c0,0.3-0.2,0.4-0.4,0.4
			c-0.1,0-0.2,0-0.3,0c0.1,0.2,0.2,0.4,0.2,0.6c0,0.9-0.7,1.4-1.4,1.4c-0.2,0-0.3,0-0.4,0c-0.1,0.1-0.2,0.2-0.2,0.3
			c0,0.2,0.1,0.3,0.5,0.3c0.4,0,0.8,0,1.1,0.1c0.7,0.1,1,0.5,1,1c0,1-1,1.6-2,1.6c-1.1,0-1.7-0.5-1.7-1.2c0-0.4,0.4-0.7,0.8-0.9
			c-0.3-0.1-0.5-0.4-0.5-0.7c0,0,0-0.1,0.1-0.1c0.2-0.1,0.4-0.3,0.5-0.4c-0.4-0.2-0.7-0.6-0.7-1.1c0-0.8,0.6-1.4,1.5-1.4
			C170.9,37.4,171.2,37.5,171.4,37.5z M170.9,42.8c0.7,0,1.2-0.3,1.2-0.8c0-0.3-0.1-0.5-0.7-0.6c-0.3,0-0.6-0.1-0.8,0
			c-0.1,0-0.3,0-0.4,0.1c-0.2,0.1-0.5,0.4-0.5,0.6C169.7,42.5,170.3,42.8,170.9,42.8z M169.9,38.8c0,0.5,0.3,0.9,0.8,0.9
			c0.5,0,0.8-0.4,0.8-0.9c0-0.5-0.2-0.9-0.8-0.9C170.3,37.9,169.9,38.2,169.9,38.8z"/>
		<path class="st0" d="M177,39.4c0,1.2-0.8,2.1-1.9,2.1c-1.3,0-1.9-1-1.9-2c0-1.2,0.8-2.1,2-2.1C176.4,37.4,177,38.3,177,39.4z
			 M174,39.4c0,1.1,0.5,1.6,1.2,1.6c0.5,0,1.1-0.4,1.1-1.5c0-0.8-0.4-1.6-1.2-1.6C174.5,37.9,174,38.5,174,39.4z"/>
		<path class="st0" d="M181.1,40.8c0,0.2-0.1,0.4-0.2,0.5c-0.2,0.1-0.6,0.2-0.9,0.2c-0.9,0-2-0.4-2-2c0-1.2,0.9-2.1,2.1-2.1
			c0.6,0,1,0.2,1.1,0.3c0,0.2-0.1,0.4-0.3,0.4c-0.2-0.1-0.5-0.2-0.8-0.2c-0.8,0-1.3,0.6-1.3,1.4c0,1.2,0.8,1.5,1.4,1.5
			C180.5,40.9,180.8,40.9,181.1,40.8L181.1,40.8z"/>
		<path class="st0" d="M182.9,36.1c0,0.2-0.2,0.4-0.4,0.4c-0.2,0-0.4-0.1-0.4-0.4c0-0.3,0.3-0.5,0.4-0.5
			C182.7,35.6,182.9,35.8,182.9,36.1z M182.8,41.2c0,0.2,0,0.2-0.2,0.2c-0.1,0-0.3,0-0.6,0c0-0.4,0-0.9,0-1.4v-1.5c0-0.5,0-0.8,0-1
			c0.2-0.1,0.5-0.1,0.7-0.1c0.1,0,0.1,0,0.1,0.5V41.2z"/>
		<path class="st0" d="M187.8,39.4c0,1.2-0.8,2.1-1.9,2.1c-1.3,0-1.9-1-1.9-2c0-1.2,0.8-2.1,2-2.1C187.1,37.4,187.8,38.3,187.8,39.4
			z M184.7,39.4c0,1.1,0.5,1.6,1.2,1.6c0.5,0,1.1-0.4,1.1-1.5c0-0.8-0.4-1.6-1.2-1.6C185.2,37.9,184.7,38.5,184.7,39.4z"/>
	</g>
	<g id="XMLID_352_">
		<g id="XMLID_369_">
			<g id="XMLID_370_">
				<path id="XMLID_380_" class="st1" d="M13.4,11.8c0.5-0.6,1.3-1.1,1.9-1.1h0.9v3.7H22v1.7c0,0.9-0.8,1.9-2.4,1.9h-3.2v6.4
					c0,2.1,0.9,3,2.6,3c1.3,0,2.3-0.2,3-0.6H22v1.5c0,1.7-1.2,2.7-3.6,2.7c-4.1,0-6.1-2.2-6.1-6.1V15C12.2,13.4,12.5,12.8,13.4,11.8
					"/>
				<path id="XMLID_377_" class="st1" d="M29.9,31c-3.2,0-4.9-1.8-4.9-5.1V14.7h1.2c1.8,0,2.9,1,2.9,3v7.7c0,1.6,0.7,2.2,2.5,2.2
					h0.8v0.9C32.3,30.3,31.6,31,29.9,31 M26.9,13.2c-1.3,0-2.4-1.1-2.4-2.4c0-1.3,1.1-2.4,2.4-2.4c1.3,0,2.4,1.1,2.4,2.4
					C29.3,12.1,28.2,13.2,26.9,13.2"/>
				<path id="XMLID_374_" class="st1" d="M50.6,22.9c0,4.3,2.8,8.3,7.8,8.3c5.3,0,8.1-3.9,8.1-8.8c0-4.4-2.8-8.3-7.8-8.3
					C53.4,14,50.6,18,50.6,22.9 M62.3,22.9c0,2.7-1.2,4.6-3.5,4.6c-2.7,0-3.9-1.9-3.9-5.2c0-2.7,1.2-4.7,3.5-4.7
					C61,17.7,62.3,19.6,62.3,22.9"/>
				<path id="XMLID_373_" class="st1" d="M51.4,10.5c0-0.5,0.2-1.2,0.6-1.7c0.9-1.4,3.6-3.2,6.7-3.2c3,0,5.6,1.4,6.9,3.1
					c0.4,0.5,0.6,1.4,0.6,1.9v1.7H66c-1.6-1.9-3.8-3.5-7.1-3.5c-3.5,0-6.1,1.6-7.5,3.5h-0.1V10.5z"/>
				<path id="XMLID_372_" class="st1" d="M60.2,36.2c0,0.8-0.4,2-0.8,2.9c-1.3,2.3-5.5,5.3-10.1,5.3c-4.6,0-8.4-2.3-10.3-5.1
					c-0.6-0.8-1-2.3-1-3.1v-2.1h0.1c2.4,3.2,5.7,5.8,10.7,5.8c5.4,0,9.3-2.7,11.3-5.8h0.1V36.2z"/>
				<path id="XMLID_371_" class="st1" d="M46.5,22.9h-2.2l0.1,0.4c0,0,0.3,1.1,0.3,2.3v1.3c0,0.6-0.1,1.2-1.8,1.2
					c-2.4,0-5.2-1-5.2-5.5c0-2.9,2.2-4.9,5.3-4.9c1.9,0,3.7,0.5,4.8,1.3l0.1,0.1h0.5v-1.4c0-1.7-1.6-3.5-5-3.5c-5.8,0-9.9,3.7-9.9,9
					c0,5.6,4.5,8.6,9,8.6c4.1,0,6.1-1.4,6.1-4.4v-2.6C48.6,23.7,47.6,22.9,46.5,22.9"/>
			</g>
		</g>
		<g id="XMLID_353_">
			<g id="XMLID_354_">
				<path id="XMLID_366_" class="st0" d="M75.6,11.2c0-2.2-0.1-3.3-0.1-4c0.7-0.2,2.1-0.5,2.6-0.5c0.4,0,0.5,0.2,0.5,2.3l0,7.4
					c1.2-0.6,2.8-1.4,4.8-1.4c3.3,0,7.1,2.3,7.1,7.7c0,3.9-2,6.1-3.8,7.3c-1.7,1.1-4,1.5-5.7,1.5c-1.8,0-3.8-0.5-4.8-0.9
					c-0.4-0.2-0.6-0.4-0.6-1V11.2z M78.5,29c0.7,0.3,1.8,0.5,2.8,0.5c3,0,6.1-2.1,6.1-6.5c0-3.6-2.1-5.6-5.2-5.6
					c-1.2,0-2.7,0.5-3.7,1.2V29z"/>
				<path id="XMLID_365_" class="st0" d="M94.1,19.6c0-2.2-0.1-3.3-0.1-4c0.6-0.2,2-0.4,2.6-0.4c0.4,0,0.5,0.2,0.5,2.2
					c0,2.4,0,5,0,7.3c0,3.9,1.8,4.4,3.3,4.4c1.7,0,3.3-1.3,4-2.2V16.6c0-0.9,0.1-1.1,0.6-1.2c0.9-0.1,1.7-0.2,2.5-0.2
					c0,0.8-0.1,3.3-0.1,6.4v5.7c0,1.8,0.8,2.1,1.8,2.3v0.6c-0.2,0.5-0.8,1.3-1.5,1.3c-1.4,0-2.6-1-2.8-2.6c-1.2,1.2-2.2,1.8-2.9,2.1
					c-0.7,0.3-1.4,0.4-2.3,0.4c-3.6,0-5.4-2.2-5.4-5.8V19.6z"/>
				<path id="XMLID_364_" class="st0" d="M117.1,15c1.9,0,3.1,0.8,3.4,1.1c0,0.5-0.2,1.1-0.4,1.4c-0.2,0.3-0.5,0.3-1,0.1
					c-0.7-0.4-1.5-0.6-2.3-0.6c-1.4,0-2.2,1-2.2,2.1c0,0.7,0.3,1.2,1.1,1.7c0.6,0.4,2.7,1.5,3.8,2.3c1.4,0.9,2,2.1,2,3.4
					c0,3.4-3,5-5.8,5c-2,0-3.9-0.8-4.5-1.6c0-0.6,0.2-1.2,0.5-1.5c0.3-0.3,0.6-0.2,1.1,0.1c0.9,0.5,1.9,0.9,3.2,0.9
					c1.6,0,2.7-1,2.7-2.3c0-0.9-0.5-1.4-1.8-2.1c-1-0.5-2.4-1.4-3.1-1.8c-1.2-0.8-2-1.9-2-3.5C111.9,16.8,114.3,15,117.1,15
					L117.1,15z"/>
				<path id="XMLID_361_" class="st0" d="M126.5,7.3c1,0,1.6,0.8,1.6,1.7c0,0.9-0.7,1.8-1.7,1.8c-1,0-1.6-0.6-1.6-1.7
					C124.7,7.8,125.7,7.3,126.5,7.3L126.5,7.3z M124.9,19.6c0-2.2-0.1-3.3-0.1-4.1c0.6-0.2,2.1-0.4,2.6-0.4c0.4,0,0.5,0.2,0.5,2.2
					v12.8c0,0.6-0.2,0.8-0.7,0.9c-0.5,0.1-1.3,0.1-2.3,0.2c0-1.5,0.1-3.5,0.1-5.6V19.6z"/>
				<path id="XMLID_360_" class="st0" d="M143.3,21.3c0-2.8-1.2-4-3.2-4c-1.9,0-3.5,1.5-4.2,2.6v10.3c0,0.7-0.1,0.9-0.7,0.9
					c-0.8,0.1-1.5,0.1-2.3,0.1c0.1-1.2,0.1-3.4,0.1-6.6v-6c0-1.2-0.3-1.7-0.8-2v-0.5c0.3-0.4,0.8-0.9,1.2-1.1c0.3-0.1,0.6,0,0.9,0
					c1,0.2,1.5,1.4,1.6,2.6c0.9-1,1.7-1.6,2.6-2.1c0.7-0.4,1.6-0.6,2.6-0.6c4.1,0,5.3,2.8,5.3,6.2v5.4c0,2.1,0.1,3.6,0.2,4.4
					c-0.8,0.1-1.7,0.3-2.6,0.3c-0.4,0-0.5-0.2-0.5-0.5L143.3,21.3z"/>
				<path id="XMLID_357_" class="st0" d="M162.2,28.9c-0.1,1-1,1.9-1.5,2.1c-0.4,0.2-1.6,0.5-3,0.5c-1.8,0-3.9-0.4-5.6-2
					c-1.4-1.4-2.2-3.7-2.2-6c0-4.5,2.7-8.6,7.4-8.6c4.1,0,5.8,3,5.9,5.9c0,0.4,0,0.9-0.1,1.1c-0.1,0.6-1.9,1.1-3.1,1.3
					c-1,0.1-4.5,0.2-7.1,0.1c0,3.7,2.3,5.8,5.5,5.8c1.7,0,3-0.4,3.6-0.7L162.2,28.9z M156.8,16.9c-1.8,0-3.5,1.7-3.8,4.5
					c2.6,0.1,5.8,0,6.4,0c0.5,0,0.8-0.3,0.8-0.8C160.3,18.5,159.1,16.9,156.8,16.9L156.8,16.9z"/>
				<path id="XMLID_356_" class="st0" d="M171,15c2,0,3.1,0.8,3.4,1.1c0,0.5-0.2,1.1-0.4,1.4c-0.2,0.3-0.5,0.3-1,0.1
					c-0.7-0.4-1.5-0.6-2.3-0.6c-1.4,0-2.2,1-2.2,2.1c0,0.7,0.3,1.2,1.1,1.7c0.6,0.4,2.7,1.5,3.8,2.3c1.4,0.9,2,2.1,2,3.4
					c0,3.4-3,5-5.8,5c-2,0-3.9-0.8-4.5-1.6c0-0.6,0.2-1.2,0.5-1.5c0.3-0.3,0.6-0.2,1.1,0.1c0.9,0.5,1.9,0.9,3.1,0.9
					c1.6,0,2.7-1,2.7-2.3c0-0.9-0.5-1.4-1.7-2.1c-1-0.5-2.4-1.4-3.1-1.8c-1.2-0.8-2-1.9-2-3.5C165.8,16.8,168.2,15,171,15L171,15z"
					/>
				<path id="XMLID_355_" class="st0" d="M183.3,15c1.9,0,3.1,0.8,3.4,1.1c0,0.5-0.2,1.1-0.4,1.4c-0.2,0.3-0.6,0.3-1,0.1
					c-0.7-0.4-1.5-0.6-2.3-0.6c-1.4,0-2.2,1-2.2,2.1c0,0.7,0.3,1.2,1.1,1.7c0.6,0.4,2.7,1.5,3.8,2.3c1.4,0.9,2,2.1,2,3.4
					c0,3.4-3,5-5.8,5c-2,0-3.9-0.8-4.5-1.6c0-0.6,0.2-1.2,0.5-1.5c0.3-0.3,0.6-0.2,1.1,0.1c0.9,0.5,1.9,0.9,3.2,0.9
					c1.6,0,2.7-1,2.7-2.3c0-0.9-0.5-1.4-1.8-2.1c-1-0.5-2.4-1.4-3.1-1.8c-1.2-0.8-2-1.9-2-3.5C178,16.8,180.4,15,183.3,15L183.3,15z
					"/>
			</g>
		</g>
	</g>
</g>
</svg>
