<svg xmlns="http://www.w3.org/2000/svg" xmlns:xlink="http://www.w3.org/1999/xlink" viewBox="0 0 22.7 14.97"><defs><style>.cls-1{fill:#213a78}</style><symbol id="ordenar" data-name="ordenar" viewBox="0 0 109.91 72.49"><path class="cls-1" d="M36.51 72.49H19.08a3.68 3.68 0 0 1-3.67-3.67V47.55H3.68A3.67 3.67 0 0 1 .51 42L24 1.82A3.63 3.63 0 0 1 27.17 0a3.64 3.64 0 0 1 3.17 1.82L53.84 42a3.67 3.67 0 0 1-3.17 5.53H40.18v21.28a3.68 3.68 0 0 1-3.67 3.68zm-17.11-4h16.78V47.23a3.68 3.68 0 0 1 3.67-3.67H50.1L27.17 4.32 4.25 43.55h11.48a3.68 3.68 0 0 1 3.67 3.67zm63.34 4a3.64 3.64 0 0 1-3.17-1.82L56.08 30.46a3.67 3.67 0 0 1 3.17-5.53H71V3.67A3.68 3.68 0 0 1 74.65 0h17.43a3.68 3.68 0 0 1 3.67 3.67v21.26h10.48a3.67 3.67 0 0 1 3.17 5.53L85.91 70.67a3.63 3.63 0 0 1-3.17 1.82zM59.82 28.93l22.92 39.24 22.92-39.23H95.43a3.68 3.68 0 0 1-3.67-3.67V4H75v21.26a3.68 3.68 0 0 1-3.67 3.67z"/></symbol></defs><title>Asset 1</title><g id="Layer_2" data-name="Layer 2"><g id="Capa_1" data-name="Capa 1"><use id="ordenar-3" data-name="ordenar" width="109.91" height="72.49" transform="scale(.21)" xlink:href="#ordenar"/></g></g></svg>