<svg xmlns="http://www.w3.org/2000/svg" xmlns:xlink="http://www.w3.org/1999/xlink" viewBox="0 0 39.4 39.4"><defs><style>.cls-1{fill:#e1e2e4}.cls-2{fill:#717580}</style><symbol id="icon_portafolio_movil_2" data-name="icon portafolio movil 2" viewBox="0 0 39.4 39.4"><circle class="cls-1" cx="19.7" cy="19.7" r="19.7"/><path class="cls-2" d="M26.75 19.37a.51.51 0 0 0 .52-.47v-8.6a2.57 2.57 0 0 0-2.75-2.55h-9.63a2.47 2.47 0 0 0-2.63 2.55v18.62a2.52 2.52 0 0 0 2.63 2.61h9.62a2.62 2.62 0 0 0 2.75-2.61v-5.28a.52.52 0 0 0-1 0v5.29a1.54 1.54 0 0 1-1.72 1.58h-9.65a1.44 1.44 0 0 1-1.59-1.58V10.81c0-1 .58-2 1.59-2h9.62a1.92 1.92 0 0 1 1.72 2v8.09a.51.51 0 0 0 .52.47z"/><ellipse class="cls-2" cx="19.56" cy="26.88" rx="1.48" ry="1.51"/></symbol></defs><title>Recurso 1</title><g id="Capa_2" data-name="Capa 2"><g id="Capa_1-2" data-name="Capa 1"><use id="icon_portafolio_movil_2-3" data-name="icon portafolio movil 2" width="39.4" height="39.4" xlink:href="#icon_portafolio_movil_2"/></g></g></svg>