<svg xmlns="http://www.w3.org/2000/svg" width="83.582" height="46.668" viewBox="0 0 83.582 46.668"><path fill="#002E6D" d="M47.523 6.434c-2.727 0-5.176 1.408-6.865 3.646V8.754c.243-2.799 3.372-5.049 6.865-5.049 3.493 0 6.65 2.192 6.865 5.049v1.326c-1.689-2.238-4.137-3.646-6.865-3.646m-29.321-.026a2.227 2.227 0 1 1 0 4.454 2.227 2.227 0 0 1 0-4.454m29.139 21.33c-2.028 0-3.87-.873-5.171-2.237a7.631 7.631 0 0 1-2.107-5.282l-.001-1.203a7.632 7.632 0 0 1 2.108-5.281c1.302-1.363 3.144-2.236 5.171-2.235 2.027-.001 3.869.872 5.171 2.235a7.628 7.628 0 0 1 2.108 5.281v1.203a7.636 7.636 0 0 1-2.108 5.282c-1.301 1.362-3.141 2.237-5.166 2.237h-.005zm-2.446-11.393a3.86 3.86 0 0 0-1.06 2.672v1.203c0 1.051.411 1.992 1.06 2.671.654.677 1.507 1.07 2.446 1.071.938-.001 1.792-.395 2.446-1.071a3.857 3.857 0 0 0 1.059-2.671v-1.203c0-1.052-.41-1.992-1.059-2.672-.654-.677-1.508-1.07-2.446-1.07s-1.792.393-2.446 1.07m-31.563 7.65c-.629.396-1.506.504-2.178.562 0 0-2.025.166-2.598-.773-.252-.311-.406-.904-.406-1.312v-6.818c4.385.008 5.333.157 5.322-3.35h-5.3V8.825c-.042-.001-.081-.005-.122-.005-2.029 0-3.675 1.641-3.675 3.419v10.232a5.274 5.274 0 0 0 5.265 5.265h.465c3.033-.039 3.227-1.755 3.227-3.741m9.719.677s-2.155.359-2.728-.581c-.252-.312-.407-1.103-.407-1.511v-8.1c-.163-1.116-1.255-1.762-3.653-1.741-.04 0-.08.003-.12.004v10.632c.007 2.909 2.019 4.253 4.028 4.362h.8c1.784-.085 2.091-1.194 2.08-3.065m14.192-4.78c-.591-.275-1.438-.42-2.588-.409-.04 0-.08.002-.12.005v4.608c-.278.412-1.182.347-1.836.347-1.435 0-2.716-.599-3.554-1.533-.633-.707-1.014-1.607-1.014-2.588l.003-.063c0-.013-.003-.025-.003-.038v-1.203a3.773 3.773 0 0 1 1.102-2.642c.217-.218.459-.447.72-.66.354-.287.742-.541 1.155-.693.081-.028.162-.057.244-.077l.007-.002a7.768 7.768 0 0 1 2.159-.298c1.493 0 2.839.4 3.791 1.042.257.168.497.352.715.555v-1.189c-.1-1.788-1.272-2.977-2.759-3.389-.381-.106-1.576-.163-1.987-.163h-1.006c-4.147.007-7.907 3.37-7.914 7.517v1.203a7.536 7.536 0 0 0 7.516 7.519h1.419c.288 0 .57-.027.844-.072.618-.102 1.59-.311 2.096-.607 1.25-.734 2.108-1.791 2.075-3.824v-2.011c-.085-.585-.424-1.037-1.065-1.335"/><path fill-rule="evenodd" clip-rule="evenodd" fill="#D9272E" d="M48.849 31.92a11.328 11.328 0 0 1 2.011-.826c1.176-.348 2.356-.496 3.592-.377 1.008.1 1.981.291 2.911.682.914.387 1.775.869 2.548 1.506.977.807 1.791 1.754 2.506 2.795.438.637.446.633.881-.012.896-1.338 2.099-2.344 3.466-3.164a15.593 15.593 0 0 1 4.653-1.838 13.283 13.283 0 0 1 1.854-.262c.499-.039.995-.064 1.492-.055 1.077.021 2.093.266 2.923.99.36.316.599.746.675 1.234.211 1.309-.431 2.24-1.398 2.988-.992.766-2.172 1.172-3.323 1.617-1.509.586-3.074.984-4.64 1.377-.427.107-.864.18-1.302.242-.405.059-.8-.283-.878-.727-.051-.285.271-.719.596-.812a38.08 38.08 0 0 0 4.715-1.701c.938-.406 1.887-.809 2.697-1.461.073-.059.158-.111.221-.182.152-.18.358-.361.26-.621-.11-.291-.38-.359-.672-.377-.946-.055-1.832.223-2.694.537-1.603.582-3.131 1.328-4.522 2.332-.614.441-1.197.908-1.528 1.621-.21.453-.11 1.031.229 1.404.668.734 1.547 1.014 2.479 1.164 1.917.314 3.71-.17 5.462-.889 1.28-.527 2.49-1.191 3.684-1.887.281-.162.59-.229.928-.096.555.219.72.846.294 1.273-.632.629-1.392 1.088-2.14 1.564-1.824 1.16-3.787 1.992-5.896 2.447-.846.182-1.721.281-2.592.234-1.93-.109-3.692-.682-5.229-1.896-1.1-.867-2.022-1.891-2.868-3.004-.865-1.137-1.894-2.111-3.186-2.764-1.414-.717-2.907-.945-4.475-.719-2.063.301-3.68 1.342-4.988 2.93a9.416 9.416 0 0 0-2.108 4.844c-.069.521-.327.791-.786.898-.468.107-1.064-.088-1.306-.439a.578.578 0 0 1-.113-.371c.013-.227.005-.455.005-.689-1.026.508-2.059.9-3.176 1.08a9.992 9.992 0 0 1-2.026.129 9.813 9.813 0 0 1-3.265-.732c-1.499-.613-2.763-1.564-3.819-2.773a11.03 11.03 0 0 1-2.427-4.643c-.259-1.035-.365-2.08-.38-3.146-.007-.514.348-.906.866-.973.661-.082 1.236.111 1.36 1 .275 1.967 1.08 3.688 2.437 5.156 1.186 1.285 2.618 2.158 4.319 2.492a7.158 7.158 0 0 0 4.051-.379c.82-.324 1.54-.795 2.226-1.342 1.039-.826 1.783-1.883 2.363-3.049a9.249 9.249 0 0 0 .936-3.166c.041-.381.346-.572.709-.676.496-.139 1.11.021 1.326.432.158.316.192.678.062 1.08"/></svg>