<?xml version="1.0" encoding="utf-8"?>
<!-- Generator: Adobe Illustrator 16.0.0, SVG Export Plug-In . SVG Version: 6.00 Build 0)  -->
<!DOCTYPE svg PUBLIC "-//W3C//DTD SVG 1.1//EN" "http://www.w3.org/Graphics/SVG/1.1/DTD/svg11.dtd">
<svg version="1.1" id="Capa_1" xmlns="http://www.w3.org/2000/svg" xmlns:xlink="http://www.w3.org/1999/xlink" x="0px" y="0px"
	 width="83.582px" height="46.668px" viewBox="0 0 83.582 46.668" enable-background="new 0 0 83.582 46.668" xml:space="preserve">
<g>
	<path fill="#002E6D" d="M47.523,6.434c-2.727,0-5.176,1.408-6.865,3.646V8.754c0.243-2.799,3.372-5.049,6.865-5.049
		c3.493,0,6.65,2.192,6.865,5.049v1.326C52.699,7.842,50.251,6.434,47.523,6.434"/>
	<path fill="#002E6D" d="M18.202,6.408c1.23,0,2.227,0.997,2.227,2.228c0,1.229-0.997,2.228-2.227,2.228
		c-1.23,0-2.228-0.998-2.228-2.228C15.974,7.405,16.972,6.408,18.202,6.408"/>
	<path fill="#002E6D" d="M47.341,27.738c-2.028,0-3.87-0.873-5.171-2.237c-1.305-1.363-2.107-3.237-2.107-5.282l-0.001-1.203
		c0.001-2.045,0.803-3.919,2.108-5.281c1.302-1.363,3.144-2.236,5.171-2.235c2.027-0.001,3.869,0.872,5.171,2.235
		c1.305,1.362,2.108,3.236,2.108,5.281v1.203c0,2.045-0.804,3.919-2.108,5.282c-1.301,1.362-3.141,2.237-5.166,2.237H47.341
		L47.341,27.738z M44.895,16.345c-0.648,0.68-1.06,1.62-1.06,2.672v1.203c0,1.051,0.411,1.992,1.06,2.671
		c0.654,0.677,1.507,1.07,2.446,1.071c0.938-0.001,1.792-0.395,2.446-1.071c0.648-0.679,1.059-1.62,1.059-2.671v-1.203
		c0-1.052-0.41-1.992-1.059-2.672c-0.654-0.677-1.508-1.07-2.446-1.07S45.549,15.668,44.895,16.345"/>
	<path fill="#002E6D" d="M13.332,23.995c-0.629,0.396-1.506,0.504-2.178,0.562c0,0-2.025,0.166-2.598-0.773
		c-0.252-0.311-0.406-0.904-0.406-1.312v-6.818c4.385,0.008,5.333,0.157,5.322-3.35h-5.3V8.825C8.13,8.824,8.091,8.82,8.05,8.82
		c-2.029,0-3.675,1.641-3.675,3.419v10.232c0.007,2.908,2.357,5.257,5.265,5.265h0.465C13.138,27.697,13.332,25.981,13.332,23.995"
		/>
	<path fill="#002E6D" d="M23.051,24.672c0,0-2.155,0.359-2.728-0.581c-0.252-0.312-0.407-1.103-0.407-1.511v-7.621v-0.479
		c-0.163-1.116-1.255-1.762-3.653-1.741c-0.04,0-0.08,0.003-0.12,0.004v2.217v8.415c0.007,2.909,2.019,4.253,4.028,4.362h0.8
		C22.755,27.652,23.062,26.543,23.051,24.672"/>
	<path fill="#002E6D" d="M37.243,19.892c-0.591-0.275-1.438-0.42-2.588-0.409c-0.04,0-0.08,0.002-0.12,0.005v0.109v2.105v2.26v0.134
		c-0.278,0.412-1.182,0.347-1.836,0.347c-1.435,0-2.716-0.599-3.554-1.533c-0.633-0.707-1.014-1.607-1.014-2.588
		c0-0.021,0.002-0.041,0.003-0.063c0-0.013-0.003-0.025-0.003-0.038v-1.203c0-0.425,0.075-0.831,0.207-1.211
		c0.187-0.541,0.493-1.027,0.895-1.431c0.217-0.218,0.459-0.447,0.72-0.66c0.354-0.287,0.742-0.541,1.155-0.693
		c0.081-0.028,0.162-0.057,0.244-0.077c0.003-0.001,0.005-0.002,0.007-0.002c0.658-0.191,1.388-0.298,2.159-0.298
		c1.493,0,2.839,0.4,3.791,1.042c0.257,0.168,0.497,0.352,0.715,0.555v-0.148v-0.401v-0.64c-0.1-1.788-1.272-2.977-2.759-3.389
		c-0.381-0.106-1.576-0.163-1.987-0.163h-1.006c-4.147,0.007-7.907,3.37-7.914,7.517v1.203c0.007,4.146,3.37,7.509,7.516,7.519
		h1.419c0.288,0,0.57-0.027,0.844-0.072c0.618-0.102,1.59-0.311,2.096-0.607c1.25-0.734,2.108-1.791,2.075-3.824v-1.532v-0.479
		C38.223,20.642,37.884,20.19,37.243,19.892"/>
	<path fill-rule="evenodd" clip-rule="evenodd" fill="#D9272E" d="M48.849,31.92c0.678-0.352,1.329-0.623,2.011-0.826
		c1.176-0.348,2.356-0.496,3.592-0.377c1.008,0.1,1.981,0.291,2.911,0.682c0.914,0.387,1.775,0.869,2.548,1.506
		c0.977,0.807,1.791,1.754,2.506,2.795c0.438,0.637,0.446,0.633,0.881-0.012c0.896-1.338,2.099-2.344,3.466-3.164
		c1.448-0.869,3.01-1.471,4.653-1.838c0.605-0.137,1.228-0.211,1.854-0.262c0.499-0.039,0.995-0.064,1.492-0.055
		c1.077,0.021,2.093,0.266,2.923,0.99c0.36,0.316,0.599,0.746,0.675,1.234c0.211,1.309-0.431,2.24-1.398,2.988
		c-0.992,0.766-2.172,1.172-3.323,1.617c-1.509,0.586-3.074,0.984-4.64,1.377c-0.427,0.107-0.864,0.18-1.302,0.242
		c-0.405,0.059-0.8-0.283-0.878-0.727c-0.051-0.285,0.271-0.719,0.596-0.812c1.61-0.457,3.18-1.037,4.715-1.701
		c0.938-0.406,1.887-0.809,2.697-1.461c0.073-0.059,0.158-0.111,0.221-0.182c0.152-0.18,0.358-0.361,0.26-0.621
		c-0.11-0.291-0.38-0.359-0.672-0.377c-0.946-0.055-1.832,0.223-2.694,0.537c-1.603,0.582-3.131,1.328-4.522,2.332
		c-0.614,0.441-1.197,0.908-1.528,1.621c-0.21,0.453-0.11,1.031,0.229,1.404c0.668,0.734,1.547,1.014,2.479,1.164
		c1.917,0.314,3.71-0.17,5.462-0.889c1.28-0.527,2.49-1.191,3.684-1.887c0.281-0.162,0.59-0.229,0.928-0.096
		c0.555,0.219,0.72,0.846,0.294,1.273c-0.632,0.629-1.392,1.088-2.14,1.564c-1.824,1.16-3.787,1.992-5.896,2.447
		c-0.846,0.182-1.721,0.281-2.592,0.234c-1.93-0.109-3.692-0.682-5.229-1.896c-1.1-0.867-2.022-1.891-2.868-3.004
		c-0.865-1.137-1.894-2.111-3.186-2.764c-1.414-0.717-2.907-0.945-4.475-0.719c-2.063,0.301-3.68,1.342-4.988,2.93
		c-1.168,1.416-1.865,3.027-2.108,4.844c-0.069,0.521-0.327,0.791-0.786,0.898c-0.468,0.107-1.064-0.088-1.306-0.439
		c-0.074-0.107-0.121-0.227-0.113-0.371c0.013-0.227,0.005-0.455,0.005-0.689c-1.026,0.508-2.059,0.9-3.176,1.08
		c-0.676,0.109-1.348,0.158-2.026,0.129c-1.129-0.053-2.219-0.305-3.265-0.732c-1.499-0.613-2.763-1.564-3.819-2.773
		c-1.178-1.346-1.99-2.898-2.427-4.643c-0.259-1.035-0.365-2.08-0.38-3.146c-0.007-0.514,0.348-0.906,0.866-0.973
		c0.661-0.082,1.236,0.111,1.36,1c0.275,1.967,1.08,3.688,2.437,5.156c1.186,1.285,2.618,2.158,4.319,2.492
		c1.365,0.268,2.735,0.139,4.051-0.379c0.82-0.324,1.54-0.795,2.226-1.342c1.039-0.826,1.783-1.883,2.363-3.049
		c0.494-0.992,0.818-2.049,0.936-3.166c0.041-0.381,0.346-0.572,0.709-0.676c0.496-0.139,1.11,0.021,1.326,0.432
		C48.945,31.156,48.979,31.518,48.849,31.92"/>
</g>
</svg>
