<svg xmlns="http://www.w3.org/2000/svg" viewBox="0 0 35.7 35.7"><defs><style>.cls-1,.cls-2,.cls-3{fill:#fafafa}.cls-1{clip-rule:evenodd}.cls-3{fill-rule:evenodd}.cls-4{clip-path:url(#clip-path)}.cls-5{clip-path:url(#clip-path-2)}</style><clipPath id="clip-path"><path class="cls-1" d="M21.76 15.55l-3.91 3.91-3.91-3.91-1.19 1.2 5.1 5.09 5.1-5.09-1.19-1.2z"/></clipPath><clipPath id="clip-path-2"><path class="cls-2" d="M12.75 15.49h10.2v6.8h-10.2z"/></clipPath></defs><title>Asset 8</title><g id="Layer_2" data-name="Layer 2"><g id="Capa_1" data-name="Capa 1"><path class="cls-3" d="M21.76 15.55l-3.91 3.91-3.91-3.91-1.19 1.2 5.1 5.09 5.1-5.09-1.19-1.2z"/><g class="cls-4"><path class="cls-2" d="M12.75 15.49h10.2v6.8h-10.2z"/><g class="cls-5"><path class="cls-2" d="M8.5 11.3h18.7v14.79H8.5z"/></g></g><path class="cls-2" d="M17.85 35.7A17.85 17.85 0 1 1 35.7 17.85 17.87 17.87 0 0 1 17.85 35.7zm0-34A16.15 16.15 0 1 0 34 17.85 16.17 16.17 0 0 0 17.85 1.7z"/></g></g></svg>